<?xml version="1.0" encoding="UTF-8"?><svg id="Camada_2" xmlns="http://www.w3.org/2000/svg" viewBox="0 0 71.11 71.11"><defs><style>.cls-1{fill:#1c1c1c;}</style></defs><g id="Camada_1-2"><path class="cls-1" d="m0,26.58l2.33-.58V1.16L0,.58v-.58h10.48c3.93,0,6.82.63,8.67,1.88,1.85,1.26,2.77,2.89,2.77,4.91,0,1.4-.4,2.52-1.2,3.38-.8.85-1.82,1.49-3.07,1.9-1.32.47-2.74.71-4.27.74v.19c1.89.08,3.53.36,4.93.85,1.42.47,2.61,1.19,3.55,2.17.94.98,1.42,2.24,1.42,3.76,0,2.3-.94,4.11-2.83,5.41-1.89,1.31-4.95,1.96-9.2,1.96H0v-.58Zm10.48-14.16c.85,0,1.65-.24,2.39-.72.74-.48,1.33-1.15,1.79-2.02.45-.87.68-1.83.68-2.89,0-1.14-.23-2.15-.68-3.03-.45-.88-1.05-1.56-1.79-2.06-.74-.49-1.53-.74-2.39-.74h-1.75v11.45h1.75Zm.78,13.78c1.6,0,2.91-.57,3.92-1.71,1.01-1.14,1.51-2.7,1.51-4.7s-.5-3.56-1.51-4.7c-1.01-1.14-2.32-1.71-3.92-1.71h-2.52v12.81h2.52Z"/><path class="cls-1" d="m52.48,26.58l2.33-.58v-8.93l-7.95-15.91-1.94-.58v-.58h4.85c1.34,0,2.43.28,3.24.85.81.57,1.48,1.38,2,2.44l5.74,11.45,5.9-13-2.91-1.16v-.58h7.37v.58l-3.1,1.16-6.79,14.94v9.31l2.33.58v.58h-11.06v-.58Z"/><path class="cls-1" d="m3.35,67.57c-2.23-2.36-3.35-5.71-3.35-10.05,0-2.85.49-5.3,1.47-7.35.98-2.05,2.36-3.6,4.13-4.65,1.77-1.05,3.83-1.58,6.16-1.58,1.41,0,2.84.41,4.28,1.23.55.3,1.09.69,1.64,1.19.42-.64.86-1.15,1.3-1.53.45-.32.69-.5.74-.52h.93v7.07h-1.49c-.32-1.19-.81-2.27-1.45-3.24-.6-.94-1.33-1.72-2.21-2.34-.88-.62-1.89-.93-3.03-.93-1.71,0-3.13.99-4.26,2.98-1.13,1.98-1.69,5.21-1.69,9.67s.61,7.78,1.84,9.73c1.23,1.95,2.91,2.92,5.04,2.92,1.17,0,2.28-.33,3.33-.99,1.05-.66,1.91-1.53,2.57-2.62.66-1.09.99-2.24.99-3.46h.93c0,1.41-.38,2.73-1.13,3.96-.76,1.23-1.79,2.21-3.09,2.94-1.3.73-2.75,1.1-4.33,1.1-3.97,0-7.07-1.18-9.3-3.53Z"/><path class="cls-1" d="m45.89,70.53l2.33-.58v-24.83l-2.33-.58v-.58h10.28c4.4,0,7.57.67,9.51,2,1.94,1.33,2.91,3.19,2.91,5.57,0,1.6-.43,2.9-1.28,3.9-.85,1-1.95,1.74-3.3,2.23-1.42.54-2.94.83-4.54.85v.19c.96.05,1.8.19,2.52.43,1.81.57,3.04,1.59,3.69,3.07l3.49,7.76,1.94.58v.58h-5.43c-2.12,0-3.67-1.1-4.66-3.3l-3.88-8.73h-2.52v10.87l2.72.58v.58h-11.45v-.58Zm10.28-12.42c1.81,0,3.23-.57,4.27-1.71,1.03-1.14,1.55-2.77,1.55-4.89s-.52-3.75-1.55-4.89c-1.03-1.14-2.46-1.71-4.27-1.71h-1.55v13.19h1.55Z"/></g></svg>