<?xml version="1.0" encoding="UTF-8"?><svg id="Camada_1" xmlns="http://www.w3.org/2000/svg" viewBox="0 0 26 26"><defs><style>.cls-1{fill:#b150e2;}</style></defs><path class="cls-1" d="m13,15c-1.93,0-3.5-1.57-3.5-3.5s1.57-3.5,3.5-3.5,3.5,1.57,3.5,3.5-1.57,3.5-3.5,3.5Zm1.97,0h-3.94c-.78,0-1.52.36-2,.98-.47.6-.64,1.39-.45,2.13l1.52,6c.29,1.12,1.3,1.89,2.45,1.89h.89c1.15,0,2.17-.77,2.45-1.89l1.52-6c.19-.74.03-1.53-.45-2.13-.48-.62-1.22-.98-2.01-.98Zm4.81-.25c-.14.53.18,1.08.72,1.22.08.02.17.03.25.03.46,0,.85-.31.97-.75,1.24-4.81-1.66-9.72-6.47-10.96-4.81-1.24-9.72,1.66-10.96,6.47-.38,1.47-.38,3.01,0,4.48.13.54.67.87,1.21.74.54-.13.87-.67.74-1.21,0,0,0-.02,0-.03-.96-3.74,1.29-7.56,5.04-8.52,3.74-.96,7.56,1.29,8.52,5.04.29,1.14.29,2.34,0,3.48h0ZM13,0C5.82,0,0,5.82,0,13c0,4.36,2.18,8.42,5.81,10.83.46.31,1.08.18,1.39-.28.31-.46.18-1.08-.28-1.39,0,0,0,0,0,0C1.86,18.81.48,11.98,3.84,6.92,7.19,1.86,14.02.48,19.08,3.84c5.06,3.36,6.44,10.19,3.08,15.25-.81,1.22-1.86,2.27-3.08,3.08-.45.31-.57.94-.25,1.39.31.44.91.56,1.36.27,5.98-3.97,7.61-12.04,3.65-18.02C21.43,2.18,17.36,0,13,0Z"/></svg>