<?xml version="1.0" encoding="UTF-8"?><svg id="Camada_1" xmlns="http://www.w3.org/2000/svg" viewBox="0 0 26.67 26.67"><defs><style>.cls-1{fill:#C13584;}</style></defs><path class="cls-1" d="m7.73,0h11.2c4.27,0,7.73,3.47,7.73,7.73v11.2c0,4.27-3.46,7.73-7.73,7.73H7.73c-4.27,0-7.73-3.47-7.73-7.73V7.73C0,3.46,3.46,0,7.73,0m-.27,2.67c-2.65,0-4.8,2.15-4.8,4.8h0v11.73c0,2.65,2.15,4.8,4.8,4.8h11.73c2.65,0,4.8-2.15,4.8-4.8h0V7.47c0-2.65-2.15-4.8-4.8-4.8H7.47m12.87,2c.92,0,1.67.75,1.67,1.67s-.75,1.67-1.67,1.67-1.67-.75-1.67-1.67.75-1.67,1.67-1.67m-7,2c3.68,0,6.67,2.98,6.67,6.67s-2.98,6.67-6.67,6.67-6.67-2.98-6.67-6.67,2.98-6.67,6.67-6.67m0,2.67c-2.21,0-4,1.79-4,4s1.79,4,4,4,4-1.79,4-4-1.79-4-4-4Z"/></svg>