<?xml version="1.0" encoding="UTF-8"?><svg id="Camada_1" xmlns="http://www.w3.org/2000/svg" viewBox="0 0 26.67 26.67"><defs><style>.cls-1{fill:#1db954;}</style></defs><path class="cls-1" d="m21.2,11.87c-4.27-2.53-11.4-2.8-15.47-1.53-.67.2-1.33-.2-1.53-.8-.2-.67.2-1.33.8-1.53,4.73-1.4,12.53-1.13,17.47,1.8.6.33.8,1.13.47,1.73-.33.47-1.13.67-1.73.33m-.13,3.73c-.33.47-.93.67-1.4.33-3.6-2.2-9.07-2.87-13.27-1.53-.53.13-1.13-.13-1.27-.67s.13-1.13.67-1.27c4.87-1.47,10.87-.73,15,1.8.4.2.6.87.27,1.33m-1.6,3.67c-.27.4-.73.53-1.13.27-3.13-1.93-7.07-2.33-11.73-1.27-.47.13-.87-.2-1-.6-.13-.47.2-.87.6-1,5.07-1.13,9.47-.67,12.93,1.47.47.2.53.73.33,1.13M13.33,0C5.97,0,0,5.97,0,13.33s5.97,13.33,13.33,13.33,13.33-5.97,13.33-13.33S20.7,0,13.33,0Z"/></svg>