<?xml version="1.0" encoding="UTF-8"?><svg id="Camada_2" xmlns="http://www.w3.org/2000/svg" viewBox="0 0 29.33 29.33"><defs><style>.cls-1{fill:#e8e8e8;}</style></defs><g id="Camada_1-2"><path class="cls-1" d="m14.67,8c-3.68,0-6.67,2.99-6.67,6.67s2.99,6.67,6.67,6.67,6.67-2.99,6.67-6.67-2.99-6.67-6.67-6.67ZM1.33,16h2.67c.73,0,1.33-.6,1.33-1.33s-.6-1.33-1.33-1.33H1.33c-.73,0-1.33.6-1.33,1.33s.6,1.33,1.33,1.33Zm24,0h2.67c.73,0,1.33-.6,1.33-1.33s-.6-1.33-1.33-1.33h-2.67c-.73,0-1.33.6-1.33,1.33s.6,1.33,1.33,1.33ZM13.33,1.33v2.67c0,.73.6,1.33,1.33,1.33s1.33-.6,1.33-1.33V1.33c0-.73-.6-1.33-1.33-1.33s-1.33.6-1.33,1.33Zm0,24v2.67c0,.73.6,1.33,1.33,1.33s1.33-.6,1.33-1.33v-2.67c0-.73-.6-1.33-1.33-1.33s-1.33.6-1.33,1.33ZM6.65,4.77c-.52-.52-1.36-.52-1.88,0,0,0,0,0,0,0-.52.52-.52,1.36,0,1.88,0,0,0,0,0,0l1.41,1.41c.52.52,1.37.52,1.88,0s.52-1.37,0-1.88l-1.41-1.41Zm16.49,16.49c-.52-.52-1.36-.52-1.88,0,0,0,0,0,0,0-.52.52-.52,1.36,0,1.88,0,0,0,0,0,0l1.41,1.41c.52.52,1.37.52,1.88,0,.52-.52.52-1.36,0-1.88,0,0,0,0,0,0l-1.41-1.41Zm1.41-14.61c.52-.52.52-1.36,0-1.88,0,0,0,0,0,0-.52-.52-1.36-.52-1.88,0,0,0,0,0,0,0l-1.41,1.41c-.52.52-.52,1.37,0,1.88s1.37.52,1.88,0l1.41-1.41ZM8.07,23.15c.52-.52.52-1.36,0-1.88,0,0,0,0,0,0-.52-.52-1.36-.52-1.88,0,0,0,0,0,0,0l-1.41,1.41c-.52.52-.52,1.37,0,1.88s1.37.52,1.88,0l1.41-1.41Z"/></g></svg>