<?xml version="1.0" encoding="UTF-8"?><svg id="Camada_1" xmlns="http://www.w3.org/2000/svg" viewBox="0 0 32 21.35"><defs><style>.cls-1{fill:red;}</style></defs><path class="cls-1" d="m31.33,3.35c-.18-.65-.53-1.23-1.02-1.69-.5-.48-1.11-.82-1.78-.99C26.02,0,15.99,0,15.99,0,11.81-.04,7.63.17,3.47.63c-.67.19-1.28.53-1.78,1.01-.49.47-.85,1.06-1.04,1.7C.2,5.76-.01,8.22,0,10.67c-.02,2.45.2,4.91.65,7.33.18.64.54,1.22,1.03,1.69.49.47,1.11.81,1.79.99,2.54.66,12.52.66,12.52.66,4.19.05,8.37-.16,12.54-.63.67-.17,1.28-.51,1.78-.99.49-.46.84-1.05,1.02-1.69.46-2.41.68-4.87.67-7.33.03-2.47-.19-4.93-.67-7.36h0ZM12.8,15.24V6.11l8.35,4.57-8.35,4.56Z"/></svg>